<svg xmlns:xlink="http://www.w3.org/1999/xlink" xmlns="http://www.w3.org/2000/svg" viewBox="0 0 30 30" width="30" height="30"><title>Icon meaning bus</title><path fill="#00ade9" stroke="#ccc" stroke-width="3" d="M15 28.58A13.58 13.58 0 1 1 28.58 15 13.6 13.6 0 0 1 15 28.58"/><path fill="#fff" d="M15 .26A14.74 14.74 0 1 0 29.74 15 14.76 14.76 0 0 0 15 .26m0 2.32A12.42 12.42 0 1 1 2.58 15 12.44 12.44 0 0 1 15 2.58"/><path fill="#fff" d="M15.1 20.16c1.92 0 2.82-.46 2.82-2s-.94-2-2.42-2h-2.36v4h2zm2.42-8.34c0-1.35-.94-1.73-2.59-1.73h-1.79v3.69h2c1.73 0 2.4-.71 2.4-1.73v-.23zm-7.38 11V7.55h5.73c3 0 4.59 1.52 4.59 3.78v.33a3.26 3.26 0 0 1-2.17 3.21 3.28 3.28 0 0 1 2.63 3.46v.27c0 2.46-1.83 4.21-5.06 4.21h-5.72z"/></svg>