<svg xmlns:xlink="http://www.w3.org/1999/xlink" xmlns="http://www.w3.org/2000/svg" viewBox="0 0 30 30" width="30" height="30"><title>Icon meaning ferry</title><path fill="#5ab031" stroke="#ccc" stroke-width="3" d="M15 28.58A13.58 13.58 0 1 1 28.58 15 13.6 13.6 0 0 1 15 28.58"/><path fill="#fff" d="M15 .26A14.74 14.74 0 1 0 29.74 15 14.76 14.76 0 0 0 15 .26m0 2.32A12.42 12.42 0 1 1 2.58 15 12.44 12.44 0 0 1 15 2.58"/><path fill="#fff" d="M11.42 23.07a.27.27 0 0 1-.29-.29v-15h8.23a.29.29 0 0 1 .31.29v2a.29.29 0 0 1-.29.33h-5.25v4h4.82a.28.28 0 0 1 .27.31v2a.27.27 0 0 1-.27.29h-4.82v5.75a.28.28 0 0 1-.27.29h-2.44z"/></svg>