<svg xmlns:xlink="http://www.w3.org/1999/xlink" xmlns="http://www.w3.org/2000/svg" class="mode-icon sm" id="tp_bus-temp" viewBox="0 0 33 33" width="33" height="33"><g fill="none" fill-rule="evenodd"><path fill="#EBC813" d="M32.97 28.848a4.133 4.133 0 0 1-4.122 4.122H4.121A4.133 4.133 0 0 1 0 28.848V4.121A4.133 4.133 0 0 1 4.121 0h24.727a4.133 4.133 0 0 1 4.122 4.121v24.727z"/><path fill="#FFF" d="M16.433 1.34c-8.345 0-15.042 6.8-15.042 15.145 0 8.345 6.8 15.145 15.145 15.145 8.346 0 15.043-6.8 15.043-15.145 0-8.346-6.8-15.146-15.146-15.146z"/><path fill="#00B5EF" d="M16.485 28.282c-6.491 0-11.849-5.255-11.849-11.746 0-6.49 5.255-11.848 11.849-11.848 6.49 0 11.848 5.254 11.848 11.848 0 6.491-5.254 11.746-11.848 11.746z"/><path fill="#FFF" d="M16.124 21.276c1.855 0 2.782-.412 2.782-1.958 0-1.442-.927-1.957-2.37-1.957H14.27v3.915h1.854zm2.37-8.14c0-1.339-.927-1.648-2.576-1.648h-1.751v3.606h1.957c1.649 0 2.37-.721 2.37-1.649v-.309zm-7.212 10.716V9.015h5.563c2.885 0 4.43 1.443 4.43 3.71v.308c0 1.546-.823 2.68-2.163 3.091 1.546.31 2.576 1.546 2.576 3.4v.31c0 2.369-1.752 4.12-4.946 4.12l-5.46-.102z"/></g></svg>