<svg xmlns:xlink="http://www.w3.org/1999/xlink" xmlns="http://www.w3.org/2000/svg" viewBox="0 0 30 30" width="30" height="30"><title>Icon meaning Light rail</title><path fill="#e62a32" stroke="#ccc" stroke-width="3" d="M15 28.58A13.58 13.58 0 1 1 28.58 15 13.6 13.6 0 0 1 15 28.58"/><path fill="#fff" d="M15 .26A14.74 14.74 0 1 0 29.74 15 14.76 14.76 0 0 0 15 .26m0 2.32A12.42 12.42 0 1 1 2.58 15 12.44 12.44 0 0 1 15 2.58"/><path fill="#fff" d="M10.95 22.14v-15a.28.28 0 0 1 .27-.27h2.46a.28.28 0 0 1 .27.27V19.5h6a.29.29 0 0 1 .29.36v2a.28.28 0 0 1-.27.29h-9z"/></svg>