<svg xmlns:xlink="http://www.w3.org/1999/xlink" xmlns="http://www.w3.org/2000/svg" viewBox="0 0 30 30" width="30" height="30"><title>metro</title><path fill="#168388" stroke="#CCC" stroke-width="3" d="M15 28.6C7.5 28.6 1.4 22.5 1.4 15S7.5 1.4 15 1.4 28.6 7.5 28.6 15 22.5 28.6 15 28.6"/><path fill="#FFF" d="M15 .3C6.9.3.3 6.9.3 15S6.9 29.7 15 29.7 29.7 23.1 29.7 15 23.1.3 15 .3m0 2.3c6.9 0 12.4 5.6 12.4 12.4S21.9 27.4 15 27.4 2.6 21.9 2.6 15 8.1 2.6 15 2.6"/><path fill="#FFF" d="M19.8 22.6c-.1 0-.3-.1-.3-.3v-9.1c0-.9.1-2.1.2-2.7h-.1l-3.3 11.9c0 .1-.1.2-.3.2h-2.4c-.2 0-.2-.1-.3-.2l-3.1-11.9v-.1c.1.8.2 1.7.2 2.8v9.2c0 .2-.1.3-.3.3H8c-.1 0-.3-.1-.3-.3V7.7c0-.1.1-.3.3-.3h3.6c.1 0 .2.1.3.2l2.1 7.5c.4 1.5.8 3.3.9 4.8.1-1.5.6-3.3 1-4.8.7-2.1 1.3-4.2 1.9-6.3.2-.4.3-.8.4-1.2.1-.4 1-.2 1.5-.2H22c.2 0 .3.1.3.3v14.6c0 .2-.1.3-.2.3h-2.3z"/></svg>