<svg xmlns:xlink="http://www.w3.org/1999/xlink" xmlns="http://www.w3.org/2000/svg" id="tp_coach" class="mode-icon sm" viewBox="0 0 30 30" width="30" height="30"><title>Icon meaning Coach</title><path fill="#742283" stroke="#ccc" stroke-width="3" d="M15 28.41A13.41 13.41 0 1 1 28.41 15 13.43 13.43 0 0 1 15 28.41"/><path fill="#fff" d="M19.9 18.51c.34.12.28.38.16.76a5 5 0 0 1-4.85 3.27c-3.63 0-5.41-1.87-5.41-5.21V12.8c0-3.09 1.74-5.35 5.45-5.35 3.06 0 4.43 1.66 4.91 3.47a.46.46 0 0 1-.26.64l-1.7.52a.43.43 0 0 1-.62-.34A2.18 2.18 0 0 0 15.21 10c-1.68 0-2.53 1.21-2.53 3.11V17c0 1.9.9 3.05 2.55 3.05a2.23 2.23 0 0 0 2.35-1.86.46.46 0 0 1 .64-.32z"/><path fill="#fff" d="M15 2.58A12.42 12.42 0 1 1 2.58 15 12.44 12.44 0 0 1 15 2.58m0-2.32A14.74 14.74 0 1 0 29.74 15 14.76 14.76 0 0 0 15 .26"/></svg>