<svg xmlns:xlink="http://www.w3.org/1999/xlink" xmlns="http://www.w3.org/2000/svg" id="tp_regional-train" class="mode-icon sm" viewBox="0 0 30 30" width="30" height="30"><title>Icon meaning regional train</title><path fill="#E26D23" stroke="#ccc" stroke-width="3" d="M15 28.58A13.58 13.58 0 1 1 28.58 15 13.6 13.6 0 0 1 15 28.58"/><path fill="#fff" d="M15 .26A14.74 14.74 0 1 0 29.74 15 14.76 14.76 0 0 0 15 .26m0 2.32A12.42 12.42 0 1 1 2.58 15 12.44 12.44 0 0 1 15 2.58"/><path fill="#fff" d="M13.76 23.52a.3.3 0 0 1-.27-.29V10.88h-4a.3.3 0 0 1-.27-.31v-2a.28.28 0 0 1 .27-.29h11.04a.28.28 0 0 1 .27.29v2a.3.3 0 0 1-.27.31h-4v12.35a.29.29 0 0 1-.29.29h-2.48z"/></svg>