<svg xmlns:xlink="http://www.w3.org/1999/xlink" xmlns="http://www.w3.org/2000/svg" id="tp_bus-private" class="mode-icon sm" viewBox="0 0 30 30" width="30" height="30">
    <rect x="1.5" y="1.5" width="27" height="27" rx="2.83" ry="2.83"/>
        <path fill="#fff" d="M19.77 22.8v1.38a1.25 1.25 0 1 0 2.5 0V22.8a1.31 1.31 0 0 0 1.52-1.27v-6.82l-.08-.71-.84-6.36c-.23-1.15-1-1.61-2.1-2.07a19.68 19.68 0 0 0-5.77-1 19.67 19.67 0 0 0-5.77 1c-1.12.43-1.87.92-2.1 2.07L6.29 14l-.07.7v6.82a1.31 1.31 0 0 0 1.52 1.28v1.38a1.25 1.25 0 1 0 2.5 0V22.8h9.53zM21 20a1.18 1.18 0 1 1 1.2-1.18A1.19 1.19 0 0 1 21 20M11.35 7.2a.52.52 0 1 1 0-1h7.3a.52.52 0 1 1 0 1h-7.3zm9.22 1a.91.91 0 0 1 1 .93l.61 4.63a.67.67 0 0 1-.69.88h-13a.67.67 0 0 1-.69-.88l.6-4.58a.91.91 0 0 1 1-.93h11.18zM7.79 18.87A1.2 1.2 0 1 1 9 20a1.19 1.19 0 0 1-1.2-1.18"/>
</svg>