<svg xmlns:xlink="http://www.w3.org/1999/xlink" xmlns="http://www.w3.org/2000/svg" id="tp_ferry-private" class="mode-icon sm" viewBox="0 0 30 30" width="30" height="30">
    <rect x="1.5" y="1.5" width="27" height="27" rx="2.83" ry="2.83"/>
        <path fill="white" d="M24.53 19.44a4.08 4.08 0 0 1-1.53.26 4 4 0 0 1-1.55-.26h-.14l.22-.87 1.45-3.7a.44.44 0 0 0-.24-.57L21 13.51v-3.33a.66.66 0 0 0-.66-.66h-1.78V8.2a.66.66 0 0 0-.66-.66h-1.4V6.47a.44.44 0 0 0-.45-.47h-2.1a.44.44 0 0 0-.44.44v1.09H12a.66.66 0 0 0-.66.66v1.33H9.71a.67.67 0 0 0-.66.66v3.33l-1.76.75a.44.44 0 0 0-.24.57l1.46 3.7.21.86-.17.06A4 4 0 0 1 7 19.7a4 4 0 0 1-1.52-.26A6.82 6.82 0 0 0 3 19v1.55a5.34 5.34 0 0 1 2 .33 5.46 5.46 0 0 0 2 .34 5.54 5.54 0 0 0 2-.34 5.33 5.33 0 0 1 2-.33 5.27 5.27 0 0 1 1.95.33 5.55 5.55 0 0 0 2 .34 5.54 5.54 0 0 0 2-.34 5.3 5.3 0 0 1 2.05-.29 5.29 5.29 0 0 1 1.95.33 5.56 5.56 0 0 0 2 .34 5.6 5.6 0 0 0 2.05-.34 5.35 5.35 0 0 1 2-.33V19a6.83 6.83 0 0 0-2.44.4M10.4 10.8H12a.67.67 0 0 0 .66-.66V8.86h4.56v1.32a.67.67 0 0 0 .66.66h1.73v2.09L15.18 11a.44.44 0 0 0-.35 0l-4.46 1.9v-2.05zM23 22.42a4 4 0 0 1-1.55-.26 6.79 6.79 0 0 0-2.45-.4 6.78 6.78 0 0 0-2.44.41 4 4 0 0 1-1.55.26 4 4 0 0 1-1.55-.26 6.78 6.78 0 0 0-2.46-.41 6.85 6.85 0 0 0-2.45.41 4 4 0 0 1-1.55.25 4 4 0 0 1-1.52-.26 6.81 6.81 0 0 0-2.48-.4v1.55a5.35 5.35 0 0 1 2 .33A5.46 5.46 0 0 0 7 24a5.56 5.56 0 0 0 2-.34 5.33 5.33 0 0 1 2-.33 5.3 5.3 0 0 1 1.95.32A5.52 5.52 0 0 0 15 24a5.54 5.54 0 0 0 2-.34 5.31 5.31 0 0 1 2-.35 5.29 5.29 0 0 1 1.95.33A5.56 5.56 0 0 0 23 24a5.6 5.6 0 0 0 2-.36 5.35 5.35 0 0 1 2-.33v-1.55a6.83 6.83 0 0 0-2.44.4 4.09 4.09 0 0 1-1.56.26"/>
</svg>