<svg xmlns:xlink="http://www.w3.org/1999/xlink" xmlns="http://www.w3.org/2000/svg" class="mode-icon sm" id="tp_bus-school" viewBox="0 0 30 30" width="30" height="30"><title>School buses</title><path fill="#9fd7f7" stroke="#ccc" stroke-width="3" d="M15 27.73A12.73 12.73 0 1 1 27.73 15 12.75 12.75 0 0 1 15 27.73"/><path fill="#00ade9" d="M15 3.35A11.65 11.65 0 1 1 3.35 15 11.66 11.66 0 0 1 15 3.35m0-2.17A13.82 13.82 0 1 0 28.82 15 13.83 13.83 0 0 0 15 1.18"/><path fill="#00ade9" d="M10.44 22.32V8h5.37c2.78 0 4.3 1.43 4.3 3.54v.31a3.05 3.05 0 0 1-2 3 3.07 3.07 0 0 1 2.46 3.24v.25c0 2.31-1.72 3.95-4.75 3.95h-5.38zM17.36 12c0-1.27-.88-1.62-2.42-1.62h-1.68v3.46h1.86c1.62 0 2.25-.66 2.25-1.62V12zm-2.27 7.65c1.8 0 2.64-.43 2.64-1.88s-.88-1.86-2.27-1.86h-2.2v3.73h1.84z"/></svg>