<svg xmlns:xlink="http://www.w3.org/1999/xlink" xmlns="http://www.w3.org/2000/svg" viewBox="0 0 28 28" width="28" height="28">
    <title>Icon meaning taxi</title>
    <path d="M3.33.5h21.34a2.83 2.83 0 0 1 2.83 2.83v21.34a2.83 2.83 0 0 1-2.83 2.83H3.33A2.83 2.83 0 0 1 .5 24.67V3.33A2.83 2.83 0 0 1 3.33.5zm19.96 17.3V14a1.6 1.6 0 0 0-1.64-1.6l-1.72-4.05a1.53 1.53 0 0 0-1.55-1.1H16V6a.34.34 0 0 0-.34-.34h-3.27A.34.34 0 0 0 12 6v1.25H9.61a1.53 1.53 0 0 0-1.55 1.1l-1.72 4.09A1.6 1.6 0 0 0 4.71 14v3.8a1.35 1.35 0 0 0 1.34 1.37V21a1.35 1.35 0 1 0 2.69 0v-1.83h10.48v1.8a1.35 1.35 0 1 0 2.69 0v-1.8a1.36 1.36 0 0 0 1.36-1.37h.02zM9 9a.87.87 0 0 1 .87-.65h8.2A.87.87 0 0 1 19 9l1.14 3H7.93L9 9zm-1.4 7.24a1.16 1.16 0 1 1 0-2.32 1.16 1.16 0 0 1 0 2.32zm12.78 0a1.16 1.16 0 1 1 0-2.32 1.16 1.16 0 0 1 0 2.32z" fill="white" fill-rule="nonzero"/> <!--fill used to be 'currentColor'-->
</svg>